# xmcd CD database file
#
# Track frame offsets:
#	150
#	23714
#	39896
#	62391
#
# Disc length: 1059 seconds
#
# Revision: 0
# Processed by: cddbd v1.5.2PL0 Copyright (c) Steve Scherf et al.
# Submitted via: CDex 1.70beta2
#
DISCID=21042104
DTITLE=HATRED (HOLLAND) - HATRED (2000 DEMO)
DYEAR=2000
DGENRE=Brutal Death Metal
TTITLE0=CHRISTIAN FAKER
TTITLE1=UNIT 731
TTITLE2=CIRCLE OF DECEIT
TTITLE3=MORTAL AGONY
EXTD=YEAR: 2000
EXTT0=
EXTT1=
EXTT2=
EXTT3=
PLAYORDER=
